<svg viewBox="0 0 12.7 12.7" xmlns="http://www.w3.org/2000/svg">
  <g fill="hsl(256 20% 10%)">
    <path d="M2.872 12.148c-.27 0-.536-.031-.796-.094a2.33 2.33 0 0 1-.734-.28 2.392 2.392 0 0 1-.608-.516 3.462 3.462 0 0 1-.422-.67 3.687 3.687 0 0 1-.234-.75A4.049 4.049 0 0 1 0 9.042h1.935c0 .167.01.333.032.5.03.156.083.306.156.452.073.146.171.27.296.375.136.093.286.14.453.14a.712.712 0 0 0 .343-.093.683.683 0 0 0 .266-.25 1.41 1.41 0 0 0 .171-.328 2.02 2.02 0 0 0 .094-.359 1.48 1.48 0 0 0 .047-.359c.01-.125.015-.25.015-.375V2.19H1.353V.551h4.39v8.194c0 .281-.02.562-.062.843-.03.281-.098.552-.203.812a2.68 2.68 0 0 1-.405.733c-.167.23-.37.422-.61.578a2.185 2.185 0 0 1-.764.328c-.27.073-.546.109-.827.109z"/>
    <path d="M2.872 12.148c-.27 0-.536-.031-.796-.094a2.33 2.33 0 0 1-.734-.28 2.392 2.392 0 0 1-.608-.516 3.462 3.462 0 0 1-.422-.67 3.687 3.687 0 0 1-.234-.75A4.049 4.049 0 0 1 0 9.042h1.935c0 .167.01.333.032.5.03.156.083.306.156.452.073.146.171.27.296.375.136.093.286.14.453.14a.712.712 0 0 0 .343-.093.683.683 0 0 0 .266-.25 1.41 1.41 0 0 0 .171-.328 2.02 2.02 0 0 0 .094-.359 1.48 1.48 0 0 0 .047-.359c.01-.125.015-.25.015-.375V2.19H1.353V.551h4.39v8.194c0 .281-.02.562-.062.843-.03.281-.098.552-.203.812a2.68 2.68 0 0 1-.405.733c-.167.23-.37.422-.61.578a2.185 2.185 0 0 1-.764.328c-.27.073-.546.109-.827.109zM9.828 12.148c-.27 0-.536-.031-.796-.094a2.33 2.33 0 0 1-.733-.28 2.392 2.392 0 0 1-.61-.516 3.462 3.462 0 0 1-.42-.67 3.687 3.687 0 0 1-.235-.75 4.049 4.049 0 0 1-.078-.796h1.936c0 .167.01.333.03.5.032.156.084.306.157.452.073.146.172.27.296.375.136.093.287.14.453.14.115 0 .229-.031.343-.093s.203-.146.266-.25a1.41 1.41 0 0 0 .172-.328 2.02 2.02 0 0 0 .093-.359 1.48 1.48 0 0 0 .047-.359c.01-.125.016-.25.016-.375V2.19H8.309V.551H12.7v8.194c0 .281-.02.562-.062.843-.032.281-.1.552-.203.812a2.68 2.68 0 0 1-.406.733c-.167.23-.37.422-.609.578a2.185 2.185 0 0 1-.765.328c-.27.073-.546.109-.827.109z"/>
  </g>
  <style>
    @media (prefers-color-scheme:dark){:root{filter:invert(100%)}}
  </style>
</svg>
